<svg width="256" height="256" viewBox="0 0 64 64" fill="none" xmlns="http://www.w3.org/2000/svg">
  <defs>
    <linearGradient id="a" x1="7" y1="18" x2="36" y2="46" gradientUnits="userSpaceOnUse"><stop stop-color="#29D3C7"/><stop offset="1" stop-color="#77F2E5"/></linearGradient>
    <linearGradient id="b" x1="29" y1="18" x2="58" y2="46" gradientUnits="userSpaceOnUse"><stop stop-color="#8C68FF"/><stop offset="1" stop-color="#5149E8"/></linearGradient>
    <linearGradient id="c" x1="8" y1="5" x2="57" y2="60" gradientUnits="userSpaceOnUse"><stop stop-color="#202944"/><stop offset="1" stop-color="#111728"/></linearGradient>
  </defs>
  <path d="M5 17C5 9.82 10.82 4 18 4h28c7.18 0 13 5.82 13 13v30c0 7.18-5.82 13-13 13H18C10.82 60 5 54.18 5 47V17Z" fill="url(#c)"/>
  <path d="M32 32c-5.4-8.7-10.2-12-15.1-10.6-8.9 2.5-8.9 18.7 0 21.2C21.8 44 26.6 40.7 32 32Z" stroke="url(#a)" stroke-width="7" stroke-linecap="round" stroke-linejoin="round"/>
  <path d="M32 32c5.4-8.7 10.2-12 15.1-10.6 8.9 2.5 8.9 18.7 0 21.2C42.2 44 37.4 40.7 32 32Z" stroke="url(#b)" stroke-width="7" stroke-linecap="round" stroke-linejoin="round"/>
  <circle cx="32" cy="32" r="5" fill="white"/><circle cx="32" cy="32" r="2.2" fill="#635BF0"/><circle cx="51.5" cy="14.5" r="2.5" fill="#77F2E5"/>
</svg>
